<svg width="15" height="24" viewBox="0 0 15 24" fill="none" xmlns="http://www.w3.org/2000/svg">
<path d="M14.256 15.748C14.256 12.412 11.352 11.572 8.688 10.924V6.076C9.96 6.22 11.304 6.628 12.576 7.372L13.56 4.948C12.264 4.108 10.464 3.58 8.688 3.484V0.819999H6.72V3.532C2.976 3.892 1.2 6.028 1.2 8.476C1.2 11.812 4.056 12.676 6.72 13.324V18.124C4.896 17.956 3.096 17.26 1.92 16.3L0.84 18.724C2.088 19.804 4.368 20.572 6.72 20.716V23.38H8.688V20.692C12.456 20.308 14.256 18.196 14.256 15.748ZM4.296 8.332C4.296 7.276 5.016 6.412 6.72 6.148V10.42C5.328 10.012 4.296 9.484 4.296 8.332ZM8.688 18.076V13.828C10.128 14.236 11.184 14.788 11.184 15.964C11.184 16.996 10.44 17.812 8.688 18.076Z" fill="#424242"/>
</svg>
